G04 PROTEUS GERBER X2 FILE*
%TF.GenerationSoftware,Labcenter,Proteus,8.6-SP2-Build23525*%
%TF.CreationDate,2018-04-08T18:57:29+00:00*%
%TF.FileFunction,Legend,Top*%
%TF.FilePolarity,Positive*%
%TF.Part,Single*%
%FSLAX45Y45*%
%MOMM*%
G01*
%TA.AperFunction,Profile*%
%ADD15C,0.203200*%
%TA.AperFunction,Material*%
%ADD16C,0.203200*%
%TD.AperFunction*%
D15*
X-9750000Y-1500000D02*
X-5250000Y-1500000D01*
X-5250000Y+2500000D01*
X-9750000Y+2500000D01*
X-9750000Y-1500000D01*
D16*
X-8890000Y+1143000D02*
X-8890000Y+1270000D01*
X-8890000Y+762000D02*
X-8890000Y+889000D01*
X-8763000Y+1016000D02*
X-8765436Y+1041876D01*
X-8772485Y+1065848D01*
X-8783762Y+1087438D01*
X-8798878Y+1106170D01*
X-8817446Y+1121569D01*
X-8839081Y+1133158D01*
X-8863394Y+1140460D01*
X-8890000Y+1143000D01*
X-8763000Y+1016000D02*
X-8765436Y+989394D01*
X-8772485Y+965081D01*
X-8783762Y+943446D01*
X-8798878Y+924878D01*
X-8817446Y+909762D01*
X-8839081Y+898485D01*
X-8863394Y+891436D01*
X-8890000Y+889000D01*
X-8890000Y+762000D02*
X-7112000Y+762000D01*
X-7112000Y+1270000D01*
X-8890000Y+1270000D01*
X-9022080Y+889000D02*
X-8945880Y+889000D01*
X-8930640Y+904875D01*
X-8930640Y+968375D01*
X-8945880Y+984250D01*
X-9022080Y+984250D01*
X-8991600Y+1047750D02*
X-9022080Y+1079500D01*
X-8930640Y+1079500D01*
X-7064000Y-230000D02*
X-7064000Y-357000D01*
X-7127500Y-865000D02*
X-7000500Y-865000D01*
X-7000500Y-357000D01*
X-7127500Y-357000D01*
X-7127500Y-865000D01*
X-7064000Y-865000D02*
X-7064000Y-992000D01*
X-6868420Y-738000D02*
X-6959860Y-738000D01*
X-6959860Y-658625D01*
X-6944620Y-642750D01*
X-6929380Y-642750D01*
X-6914140Y-658625D01*
X-6914140Y-738000D01*
X-6914140Y-658625D02*
X-6898900Y-642750D01*
X-6868420Y-642750D01*
X-6929380Y-579250D02*
X-6959860Y-547500D01*
X-6868420Y-547500D01*
X-6810000Y-230000D02*
X-6810000Y-357000D01*
X-6873500Y-865000D02*
X-6746500Y-865000D01*
X-6746500Y-357000D01*
X-6873500Y-357000D01*
X-6873500Y-865000D01*
X-6810000Y-865000D02*
X-6810000Y-992000D01*
X-6614420Y-738000D02*
X-6705860Y-738000D01*
X-6705860Y-658625D01*
X-6690620Y-642750D01*
X-6675380Y-642750D01*
X-6660140Y-658625D01*
X-6660140Y-738000D01*
X-6660140Y-658625D02*
X-6644900Y-642750D01*
X-6614420Y-642750D01*
X-6690620Y-595125D02*
X-6705860Y-579250D01*
X-6705860Y-531625D01*
X-6690620Y-515750D01*
X-6675380Y-515750D01*
X-6660140Y-531625D01*
X-6660140Y-579250D01*
X-6644900Y-595125D01*
X-6614420Y-595125D01*
X-6614420Y-515750D01*
X-6556000Y-230000D02*
X-6556000Y-357000D01*
X-6619500Y-865000D02*
X-6492500Y-865000D01*
X-6492500Y-357000D01*
X-6619500Y-357000D01*
X-6619500Y-865000D01*
X-6556000Y-865000D02*
X-6556000Y-992000D01*
X-6360420Y-738000D02*
X-6451860Y-738000D01*
X-6451860Y-658625D01*
X-6436620Y-642750D01*
X-6421380Y-642750D01*
X-6406140Y-658625D01*
X-6406140Y-738000D01*
X-6406140Y-658625D02*
X-6390900Y-642750D01*
X-6360420Y-642750D01*
X-6436620Y-595125D02*
X-6451860Y-579250D01*
X-6451860Y-531625D01*
X-6436620Y-515750D01*
X-6421380Y-515750D01*
X-6406140Y-531625D01*
X-6390900Y-515750D01*
X-6375660Y-515750D01*
X-6360420Y-531625D01*
X-6360420Y-579250D01*
X-6375660Y-595125D01*
X-6406140Y-563375D02*
X-6406140Y-531625D01*
X-6302000Y-992000D02*
X-6302000Y-865000D01*
X-6365500Y-865000D02*
X-6238500Y-865000D01*
X-6238500Y-357000D01*
X-6365500Y-357000D01*
X-6365500Y-865000D01*
X-6302000Y-357000D02*
X-6302000Y-230000D01*
X-6406140Y-738000D02*
X-6497580Y-738000D01*
X-6497580Y-658625D01*
X-6482340Y-642750D01*
X-6467100Y-642750D01*
X-6451860Y-658625D01*
X-6451860Y-738000D01*
X-6451860Y-658625D02*
X-6436620Y-642750D01*
X-6406140Y-642750D01*
X-6436620Y-515750D02*
X-6436620Y-611000D01*
X-6497580Y-547500D01*
X-6406140Y-547500D01*
X-6159000Y+508000D02*
X-6159000Y+635000D01*
X-6222500Y+635000D02*
X-6095500Y+635000D01*
X-6095500Y+1143000D01*
X-6222500Y+1143000D01*
X-6222500Y+635000D01*
X-6159000Y+1143000D02*
X-6159000Y+1270000D01*
X-6263140Y+762000D02*
X-6354580Y+762000D01*
X-6354580Y+841375D01*
X-6339340Y+857250D01*
X-6324100Y+857250D01*
X-6308860Y+841375D01*
X-6308860Y+762000D01*
X-6308860Y+841375D02*
X-6293620Y+857250D01*
X-6263140Y+857250D01*
X-6354580Y+984250D02*
X-6354580Y+904875D01*
X-6324100Y+904875D01*
X-6324100Y+968375D01*
X-6308860Y+984250D01*
X-6278380Y+984250D01*
X-6263140Y+968375D01*
X-6263140Y+920750D01*
X-6278380Y+904875D01*
X-5905000Y+508000D02*
X-5905000Y+635000D01*
X-5968500Y+635000D02*
X-5841500Y+635000D01*
X-5841500Y+1143000D01*
X-5968500Y+1143000D01*
X-5968500Y+635000D01*
X-5905000Y+1143000D02*
X-5905000Y+1270000D01*
X-6009140Y+762000D02*
X-6100580Y+762000D01*
X-6100580Y+841375D01*
X-6085340Y+857250D01*
X-6070100Y+857250D01*
X-6054860Y+841375D01*
X-6054860Y+762000D01*
X-6054860Y+841375D02*
X-6039620Y+857250D01*
X-6009140Y+857250D01*
X-6085340Y+984250D02*
X-6100580Y+968375D01*
X-6100580Y+920750D01*
X-6085340Y+904875D01*
X-6024380Y+904875D01*
X-6009140Y+920750D01*
X-6009140Y+968375D01*
X-6024380Y+984250D01*
X-6039620Y+984250D01*
X-6054860Y+968375D01*
X-6054860Y+904875D01*
X-5651000Y+1270000D02*
X-5651000Y+1143000D01*
X-5714500Y+635000D02*
X-5587500Y+635000D01*
X-5587500Y+1143000D01*
X-5714500Y+1143000D01*
X-5714500Y+635000D01*
X-5651000Y+635000D02*
X-5651000Y+508000D01*
X-5455420Y+762000D02*
X-5546860Y+762000D01*
X-5546860Y+841375D01*
X-5531620Y+857250D01*
X-5516380Y+857250D01*
X-5501140Y+841375D01*
X-5501140Y+762000D01*
X-5501140Y+841375D02*
X-5485900Y+857250D01*
X-5455420Y+857250D01*
X-5546860Y+904875D02*
X-5546860Y+984250D01*
X-5531620Y+984250D01*
X-5455420Y+904875D01*
X-9267000Y+508000D02*
X-9267000Y+635000D01*
X-9330500Y+635000D02*
X-9203500Y+635000D01*
X-9203500Y+1143000D01*
X-9330500Y+1143000D01*
X-9330500Y+635000D01*
X-9267000Y+1143000D02*
X-9267000Y+1270000D01*
X-9371140Y+762000D02*
X-9462580Y+762000D01*
X-9462580Y+841375D01*
X-9447340Y+857250D01*
X-9432100Y+857250D01*
X-9416860Y+841375D01*
X-9416860Y+762000D01*
X-9416860Y+841375D02*
X-9401620Y+857250D01*
X-9371140Y+857250D01*
X-9416860Y+920750D02*
X-9432100Y+904875D01*
X-9447340Y+904875D01*
X-9462580Y+920750D01*
X-9462580Y+968375D01*
X-9447340Y+984250D01*
X-9432100Y+984250D01*
X-9416860Y+968375D01*
X-9416860Y+920750D01*
X-9401620Y+904875D01*
X-9386380Y+904875D01*
X-9371140Y+920750D01*
X-9371140Y+968375D01*
X-9386380Y+984250D01*
X-9401620Y+984250D01*
X-9416860Y+968375D01*
X-6028000Y+1901000D02*
X-6155000Y+1901000D01*
X-6663000Y+1837500D02*
X-6155000Y+1837500D01*
X-6155000Y+1964500D01*
X-6663000Y+1964500D01*
X-6663000Y+1837500D01*
X-6663000Y+1901000D02*
X-6790000Y+1901000D01*
X-6536000Y+1705420D02*
X-6536000Y+1796860D01*
X-6456625Y+1796860D01*
X-6440750Y+1781620D01*
X-6440750Y+1766380D01*
X-6456625Y+1751140D01*
X-6536000Y+1751140D01*
X-6456625Y+1751140D02*
X-6440750Y+1735900D01*
X-6440750Y+1705420D01*
X-6313750Y+1766380D02*
X-6329625Y+1751140D01*
X-6377250Y+1751140D01*
X-6393125Y+1766380D01*
X-6393125Y+1781620D01*
X-6377250Y+1796860D01*
X-6329625Y+1796860D01*
X-6313750Y+1781620D01*
X-6313750Y+1720660D01*
X-6329625Y+1705420D01*
X-6377250Y+1705420D01*
X-6028000Y+2155000D02*
X-6155000Y+2155000D01*
X-6663000Y+2091500D02*
X-6155000Y+2091500D01*
X-6155000Y+2218500D01*
X-6663000Y+2218500D01*
X-6663000Y+2091500D01*
X-6663000Y+2155000D02*
X-6790000Y+2155000D01*
X-6599500Y+1959420D02*
X-6599500Y+2050860D01*
X-6520125Y+2050860D01*
X-6504250Y+2035620D01*
X-6504250Y+2020380D01*
X-6520125Y+2005140D01*
X-6599500Y+2005140D01*
X-6520125Y+2005140D02*
X-6504250Y+1989900D01*
X-6504250Y+1959420D01*
X-6440750Y+2020380D02*
X-6409000Y+2050860D01*
X-6409000Y+1959420D01*
X-6313750Y+2020380D02*
X-6282000Y+2050860D01*
X-6282000Y+1959420D01*
X-8631000Y-377000D02*
X-7869000Y-377000D01*
X-7869000Y-123000D01*
X-8631000Y-123000D01*
X-8631000Y-377000D01*
X-7869000Y-377000D02*
X-7869000Y-504000D01*
X-8631000Y-504000D01*
X-8631000Y-377000D01*
X-7869000Y-377000D02*
X-7996000Y-504000D01*
X-7996000Y-377000D02*
X-8123000Y-504000D01*
X-8123000Y-377000D02*
X-8250000Y-504000D01*
X-8250000Y-377000D02*
X-8377000Y-504000D01*
X-8377000Y-377000D02*
X-8504000Y-504000D01*
X-8504000Y-377000D02*
X-8631000Y-504000D01*
X-8377000Y-575120D02*
X-8345250Y-544640D01*
X-8313500Y-544640D01*
X-8281750Y-575120D01*
X-8281750Y-605600D01*
X-8313500Y-636080D01*
X-8345250Y-636080D01*
X-8377000Y-605600D01*
X-8377000Y-575120D01*
X-8313500Y-605600D02*
X-8281750Y-636080D01*
X-8218250Y-575120D02*
X-8186500Y-544640D01*
X-8186500Y-636080D01*
X-8699000Y-1135000D02*
X-8572000Y-1135000D01*
X-8572000Y-1198500D02*
X-8064000Y-1198500D01*
X-8064000Y-1071500D01*
X-8572000Y-1071500D01*
X-8572000Y-1198500D01*
X-8064000Y-1135000D02*
X-7937000Y-1135000D01*
X-8508500Y-1030860D02*
X-8508500Y-939420D01*
X-8429125Y-939420D01*
X-8413250Y-954660D01*
X-8413250Y-969900D01*
X-8429125Y-985140D01*
X-8508500Y-985140D01*
X-8429125Y-985140D02*
X-8413250Y-1000380D01*
X-8413250Y-1030860D01*
X-8349750Y-969900D02*
X-8318000Y-939420D01*
X-8318000Y-1030860D01*
X-8254500Y-1015620D02*
X-8254500Y-954660D01*
X-8238625Y-939420D01*
X-8175125Y-939420D01*
X-8159250Y-954660D01*
X-8159250Y-1015620D01*
X-8175125Y-1030860D01*
X-8238625Y-1030860D01*
X-8254500Y-1015620D01*
X-8254500Y-1030860D02*
X-8159250Y-939420D01*
M02*
