G04 PROTEUS GERBER X2 FILE*
%TF.GenerationSoftware,Labcenter,Proteus,8.6-SP2-Build23525*%
%TF.CreationDate,2018-04-08T18:57:29+00:00*%
%TF.FileFunction,AssemblyDrawing,Top*%
%TF.FilePolarity,Positive*%
%TF.Part,Single*%
%FSLAX45Y45*%
%MOMM*%
G01*
%TA.AperFunction,Profile*%
%ADD15C,0.203200*%
%TA.AperFunction,Material*%
%ADD16C,0.203200*%
%ADD71C,0.533400*%
%ADD20C,0.106680*%
%ADD21C,0.240790*%
%TD.AperFunction*%
D15*
X-9750000Y-1500000D02*
X-5250000Y-1500000D01*
X-5250000Y+2500000D01*
X-9750000Y+2500000D01*
X-9750000Y-1500000D01*
D16*
X-8900160Y+571500D02*
X-7101840Y+571500D01*
X-7101840Y+1460500D01*
X-8900160Y+1460500D01*
X-8900160Y+571500D01*
D71*
X-8427720Y+1176020D02*
X-8427720Y+909320D01*
X-8374380Y+855980D01*
X-8161020Y+855980D01*
X-8107680Y+909320D01*
X-8107680Y+1176020D01*
X-7894320Y+1069340D02*
X-7787640Y+1176020D01*
X-7787640Y+855980D01*
D16*
X-7152900Y-1207900D02*
X-6975100Y-1207900D01*
X-6975100Y-14100D01*
X-7152900Y-14100D01*
X-7152900Y-1207900D01*
D20*
X-7031996Y-696344D02*
X-7096004Y-696344D01*
X-7096004Y-643004D01*
X-7085336Y-632336D01*
X-7074668Y-632336D01*
X-7064000Y-643004D01*
X-7064000Y-696344D01*
X-7064000Y-643004D02*
X-7053332Y-632336D01*
X-7031996Y-632336D01*
X-7074668Y-589664D02*
X-7096004Y-568328D01*
X-7031996Y-568328D01*
D16*
X-6898900Y-1207900D02*
X-6721100Y-1207900D01*
X-6721100Y-14100D01*
X-6898900Y-14100D01*
X-6898900Y-1207900D01*
D20*
X-6777996Y-696344D02*
X-6842004Y-696344D01*
X-6842004Y-643004D01*
X-6831336Y-632336D01*
X-6820668Y-632336D01*
X-6810000Y-643004D01*
X-6810000Y-696344D01*
X-6810000Y-643004D02*
X-6799332Y-632336D01*
X-6777996Y-632336D01*
X-6831336Y-600332D02*
X-6842004Y-589664D01*
X-6842004Y-557660D01*
X-6831336Y-546992D01*
X-6820668Y-546992D01*
X-6810000Y-557660D01*
X-6810000Y-589664D01*
X-6799332Y-600332D01*
X-6777996Y-600332D01*
X-6777996Y-546992D01*
D16*
X-6644900Y-1207900D02*
X-6467100Y-1207900D01*
X-6467100Y-14100D01*
X-6644900Y-14100D01*
X-6644900Y-1207900D01*
D20*
X-6523996Y-696344D02*
X-6588004Y-696344D01*
X-6588004Y-643004D01*
X-6577336Y-632336D01*
X-6566668Y-632336D01*
X-6556000Y-643004D01*
X-6556000Y-696344D01*
X-6556000Y-643004D02*
X-6545332Y-632336D01*
X-6523996Y-632336D01*
X-6577336Y-600332D02*
X-6588004Y-589664D01*
X-6588004Y-557660D01*
X-6577336Y-546992D01*
X-6566668Y-546992D01*
X-6556000Y-557660D01*
X-6545332Y-546992D01*
X-6534664Y-546992D01*
X-6523996Y-557660D01*
X-6523996Y-589664D01*
X-6534664Y-600332D01*
X-6556000Y-578996D02*
X-6556000Y-557660D01*
D16*
X-6390900Y-1207900D02*
X-6213100Y-1207900D01*
X-6213100Y-14100D01*
X-6390900Y-14100D01*
X-6390900Y-1207900D01*
D20*
X-6269996Y-696344D02*
X-6334004Y-696344D01*
X-6334004Y-643004D01*
X-6323336Y-632336D01*
X-6312668Y-632336D01*
X-6302000Y-643004D01*
X-6302000Y-696344D01*
X-6302000Y-643004D02*
X-6291332Y-632336D01*
X-6269996Y-632336D01*
X-6291332Y-546992D02*
X-6291332Y-611000D01*
X-6334004Y-568328D01*
X-6269996Y-568328D01*
D16*
X-6247900Y+292100D02*
X-6070100Y+292100D01*
X-6070100Y+1485900D01*
X-6247900Y+1485900D01*
X-6247900Y+292100D01*
D20*
X-6126996Y+803656D02*
X-6191004Y+803656D01*
X-6191004Y+856996D01*
X-6180336Y+867664D01*
X-6169668Y+867664D01*
X-6159000Y+856996D01*
X-6159000Y+803656D01*
X-6159000Y+856996D02*
X-6148332Y+867664D01*
X-6126996Y+867664D01*
X-6191004Y+953008D02*
X-6191004Y+899668D01*
X-6169668Y+899668D01*
X-6169668Y+942340D01*
X-6159000Y+953008D01*
X-6137664Y+953008D01*
X-6126996Y+942340D01*
X-6126996Y+910336D01*
X-6137664Y+899668D01*
D16*
X-5993900Y+292100D02*
X-5816100Y+292100D01*
X-5816100Y+1485900D01*
X-5993900Y+1485900D01*
X-5993900Y+292100D01*
D20*
X-5872996Y+803656D02*
X-5937004Y+803656D01*
X-5937004Y+856996D01*
X-5926336Y+867664D01*
X-5915668Y+867664D01*
X-5905000Y+856996D01*
X-5905000Y+803656D01*
X-5905000Y+856996D02*
X-5894332Y+867664D01*
X-5872996Y+867664D01*
X-5926336Y+953008D02*
X-5937004Y+942340D01*
X-5937004Y+910336D01*
X-5926336Y+899668D01*
X-5883664Y+899668D01*
X-5872996Y+910336D01*
X-5872996Y+942340D01*
X-5883664Y+953008D01*
X-5894332Y+953008D01*
X-5905000Y+942340D01*
X-5905000Y+899668D01*
D16*
X-5739900Y+292100D02*
X-5562100Y+292100D01*
X-5562100Y+1485900D01*
X-5739900Y+1485900D01*
X-5739900Y+292100D01*
D20*
X-5618996Y+803656D02*
X-5683004Y+803656D01*
X-5683004Y+856996D01*
X-5672336Y+867664D01*
X-5661668Y+867664D01*
X-5651000Y+856996D01*
X-5651000Y+803656D01*
X-5651000Y+856996D02*
X-5640332Y+867664D01*
X-5618996Y+867664D01*
X-5683004Y+899668D02*
X-5683004Y+953008D01*
X-5672336Y+953008D01*
X-5618996Y+899668D01*
D16*
X-9355900Y+292100D02*
X-9178100Y+292100D01*
X-9178100Y+1485900D01*
X-9355900Y+1485900D01*
X-9355900Y+292100D01*
D20*
X-9234996Y+803656D02*
X-9299004Y+803656D01*
X-9299004Y+856996D01*
X-9288336Y+867664D01*
X-9277668Y+867664D01*
X-9267000Y+856996D01*
X-9267000Y+803656D01*
X-9267000Y+856996D02*
X-9256332Y+867664D01*
X-9234996Y+867664D01*
X-9267000Y+910336D02*
X-9277668Y+899668D01*
X-9288336Y+899668D01*
X-9299004Y+910336D01*
X-9299004Y+942340D01*
X-9288336Y+953008D01*
X-9277668Y+953008D01*
X-9267000Y+942340D01*
X-9267000Y+910336D01*
X-9256332Y+899668D01*
X-9245664Y+899668D01*
X-9234996Y+910336D01*
X-9234996Y+942340D01*
X-9245664Y+953008D01*
X-9256332Y+953008D01*
X-9267000Y+942340D01*
D16*
X-7005900Y+1812100D02*
X-5812100Y+1812100D01*
X-5812100Y+1989900D01*
X-7005900Y+1989900D01*
X-7005900Y+1812100D01*
D20*
X-6494344Y+1868996D02*
X-6494344Y+1933004D01*
X-6441004Y+1933004D01*
X-6430336Y+1922336D01*
X-6430336Y+1911668D01*
X-6441004Y+1901000D01*
X-6494344Y+1901000D01*
X-6441004Y+1901000D02*
X-6430336Y+1890332D01*
X-6430336Y+1868996D01*
X-6344992Y+1911668D02*
X-6355660Y+1901000D01*
X-6387664Y+1901000D01*
X-6398332Y+1911668D01*
X-6398332Y+1922336D01*
X-6387664Y+1933004D01*
X-6355660Y+1933004D01*
X-6344992Y+1922336D01*
X-6344992Y+1879664D01*
X-6355660Y+1868996D01*
X-6387664Y+1868996D01*
D16*
X-7005900Y+2066100D02*
X-5812100Y+2066100D01*
X-5812100Y+2243900D01*
X-7005900Y+2243900D01*
X-7005900Y+2066100D01*
D20*
X-6537016Y+2122996D02*
X-6537016Y+2187004D01*
X-6483676Y+2187004D01*
X-6473008Y+2176336D01*
X-6473008Y+2165668D01*
X-6483676Y+2155000D01*
X-6537016Y+2155000D01*
X-6483676Y+2155000D02*
X-6473008Y+2144332D01*
X-6473008Y+2122996D01*
X-6430336Y+2165668D02*
X-6409000Y+2187004D01*
X-6409000Y+2122996D01*
X-6344992Y+2165668D02*
X-6323656Y+2187004D01*
X-6323656Y+2122996D01*
D16*
X-8641160Y-514160D02*
X-7858840Y-514160D01*
X-7858840Y-112840D01*
X-8641160Y-112840D01*
X-8641160Y-514160D01*
D21*
X-8442633Y-289421D02*
X-8394475Y-241263D01*
X-8346317Y-241263D01*
X-8298159Y-289421D01*
X-8298159Y-337580D01*
X-8346317Y-385738D01*
X-8394475Y-385738D01*
X-8442633Y-337580D01*
X-8442633Y-289421D01*
X-8346317Y-337580D02*
X-8298159Y-385738D01*
X-8201842Y-289421D02*
X-8153684Y-241263D01*
X-8153684Y-385738D01*
D16*
X-8914900Y-1223900D02*
X-7721100Y-1223900D01*
X-7721100Y-1046100D01*
X-8914900Y-1046100D01*
X-8914900Y-1223900D01*
D20*
X-8446016Y-1167004D02*
X-8446016Y-1102996D01*
X-8392676Y-1102996D01*
X-8382008Y-1113664D01*
X-8382008Y-1124332D01*
X-8392676Y-1135000D01*
X-8446016Y-1135000D01*
X-8392676Y-1135000D02*
X-8382008Y-1145668D01*
X-8382008Y-1167004D01*
X-8339336Y-1124332D02*
X-8318000Y-1102996D01*
X-8318000Y-1167004D01*
X-8275328Y-1156336D02*
X-8275328Y-1113664D01*
X-8264660Y-1102996D01*
X-8221988Y-1102996D01*
X-8211320Y-1113664D01*
X-8211320Y-1156336D01*
X-8221988Y-1167004D01*
X-8264660Y-1167004D01*
X-8275328Y-1156336D01*
X-8275328Y-1167004D02*
X-8211320Y-1102996D01*
M02*
